<svg id="Layer_1" data-name="Layer 1" xmlns="http://www.w3.org/2000/svg" xmlns:xlink="http://www.w3.org/1999/xlink" viewBox="0 0 403 67.7"><defs><style>.cls-1{fill:url(#linear-gradient);}.cls-2{fill:url(#linear-gradient-2);}.cls-3{fill:url(#linear-gradient-3);}.cls-4{fill:url(#linear-gradient-4);}.cls-5{fill:url(#linear-gradient-5);}.cls-6{fill:url(#linear-gradient-6);}</style><linearGradient id="linear-gradient" x1="394.26" y1="418.1" x2="393.75" y2="545.25" gradientUnits="userSpaceOnUse"><stop offset="0" stop-color="#b9529f"/><stop offset="0.19" stop-color="#bf4f88"/><stop offset="1" stop-color="#d84429"/></linearGradient><linearGradient id="linear-gradient-2" x1="325.69" y1="417.82" x2="325.18" y2="544.97" xlink:href="#linear-gradient"/><linearGradient id="linear-gradient-3" x1="107.58" y1="416.95" x2="107.07" y2="544.1" xlink:href="#linear-gradient"/><linearGradient id="linear-gradient-4" x1="176.17" y1="417.22" x2="175.66" y2="544.37" xlink:href="#linear-gradient"/><linearGradient id="linear-gradient-5" x1="262.51" y1="417.57" x2="261.99" y2="544.72" xlink:href="#linear-gradient"/><linearGradient id="linear-gradient-6" x1="457.37" y1="418.35" x2="456.86" y2="545.5" xlink:href="#linear-gradient"/></defs><path class="cls-1" d="M393.9,427.6c17.2-.1,30.5,13,30.5,30a30,30,0,0,1-30.2,30c-17.2.1-30.3-12.9-30.4-30.1S376.9,427.6,393.9,427.6Zm-9.5,18.2c-5.4,3.6-7.5,9.6-5.7,16.3s8.2,11.1,14.8,11.5,13.2-4.2,15.5-10.5.9-11.4-3.5-15v13.7c.1,3-1.4,4.3-4.3,3.6C392.7,463.4,385.2,454.8,384.4,445.8Zm18.3,16.7c0-4.3.6-8-.2-11.4a15,15,0,0,0-4.2-7.8c-3.1-3-6.9-5.2-10.2-7.6C386.9,455.2,386.4,453.5,402.7,462.5Z" transform="translate(-78.1 -427.2)"/><path class="cls-2" d="M354.7,485.2c-8.8.5-13.1-3.1-13.4-11-.3-5.8-.1-11.6-1.3-17.7l-5.8,7.2c-6.2,7.9-9.8,8.2-17.5.8-.2,1.8-.4,3.2-.5,4.5,0,7.2.1,14.3,0,21.5-.1,4.3-2.2,5.5-5.8,3.4s-7.1-3.8-9.9-6.5-3.8-5-3.9-7.7c-.4-15.6-.3-31.2-.2-46.9.1-1.6,1.6-4.5,2.7-4.6s5.2.1,6.7,1.6c4.2,4.2,7.8,9.1,11.6,13.7,10,12,7.2,10.4,16,.2,3.7-4.3,6.8-9.1,10.8-13.1a10.5,10.5,0,0,1,7.4-2.6c3.4.3,3.1,3.7,3.1,6.4Zm-41.8,6.2c0-13.3,0-26.5-.1-39.7,0-1.1-1.2-2.5-2.1-3.2-3.7-2.6-7.5-5-11.6-7.8v32.5C299.2,484.3,301.5,487.4,312.9,491.4Z" transform="translate(-78.1 -427.2)"/><path class="cls-3" d="M136.6,484.9c-8,1.1-12.8-2.6-13.1-10-.3-5.9-.1-11.9-.1-17.8l-1.2-.6c-1.8,2.2-3.7,4.3-5.4,6.6-6.8,8.5-9.7,8.9-18.1,1.6-.1,1.7-.4,3.1-.4,4.5,0,6.6.1,13.3-.1,20,0,1.7-.6,4.4-1.8,5s-3.6-.4-5.3-1.1c-10.2-4.3-13.8-11.8-12.9-23s.1-24,.4-36c0-2.1,1.4-5.6,2.7-5.9a8.4,8.4,0,0,1,7.1,2c5.5,6,10.6,12.4,15.6,18.8,2.6,3.3,4.4,3.7,7.2,0,4.1-5.7,8.7-11,13.2-16.3a21.8,21.8,0,0,1,4.7-4.4c3.5-2,7.4-.4,7.4,3.4C136.7,449.4,136.6,467.2,136.6,484.9Zm-41.2,7.6c0-14,.1-26.6-.1-39.2,0-1.6-1.5-3.7-2.9-4.8a133.4,133.4,0,0,0-11-7.7c0,13.2-.1,26.4.1,39.7a7.4,7.4,0,0,0,2.6,4.6C87.3,487.6,90.9,489.6,95.4,492.5Z" transform="translate(-78.1 -427.2)"/><path class="cls-4" d="M206.6,487.3c-8.3,1.3-16.1.4-19-7.2-4.1-10.5-11.5-10.7-21.1-9.2,0,5.5.1,11.3-.1,17-.1,2.1-1.1,4.2-1.7,6.4l-5.9-1.9c-10.8-4.4-14.8-12.6-13-23.9a6.7,6.7,0,0,0,0-2c-2.2-13.6,3.3-25,10.3-35.9a7.9,7.9,0,0,1,5.1-3c13.4-1,13.4-.9,19.7,11C189.4,454.6,197.8,470.7,206.6,487.3Zm-57.9-32.1v16.3c0,11.7,2.8,15.5,14.9,19.6,0-6.8-.1-13.4.1-20,.1-4-1.7-6.5-4.9-8.5S152.4,458,148.7,455.2Zm17.7-13.1-8,14H174C171.4,451.3,169.1,447.2,166.4,442.1Z" transform="translate(-78.1 -427.2)"/><path class="cls-5" d="M258.8,473.7h27.8c1.8,7.9-2.9,13.9-10.5,14-5.7.1-11.3,0-16.8,0-1.9,8-2.8,8.4-9.1,4.4-2.3-1.4-4.4-3-6.7-4.3-4-2.3-5.8-5.8-5.8-10.4.1-14.1.1-28.3,0-42.5,0-4.3,2-7.2,6.4-7.3,14.2-.1,28.3,0,42.4,0,1.9,8-2.7,13.6-11.2,13.8s-15.6,0-23.3,0a71.3,71.3,0,0,0,6.1,7.7c1,1,2.9,1.3,4.4,1.3,8.1.2,16.3.1,24.3.1,1,9.2-3.3,14.1-11.7,14.1-5-.1-10,0-14.9,0a6.3,6.3,0,0,0-1.4.4Zm-18.2-35.6v35.4c0,9.3,5.1,15.3,14.9,17.3,0-13,.1-25.9-.2-38.8-.1-2.1-1.9-4.5-3.7-6S244.5,440.8,240.6,438.1Z" transform="translate(-78.1 -427.2)"/><path class="cls-6" d="M467.6,454.8V439.3c.1-8.4,4.2-12,12.9-11.3a23.2,23.2,0,0,1,.5,3.8c.1,15.3,0,30.6,0,45.9,0,.7.2,1.5-.1,2s-2,4.4-3.7,5.2-4.2-.6-5.5-1.9c-4.9-4.9-9.4-10.3-14.1-15.5-1-1.2-1.9-2.5-2.9-3.8l-1.3.7c0,8.1.1,16.2-.1,24.2,0,2-.4,4.9-1.7,5.7s-3.8-.6-5.7-1.4c-10.3-4.1-13.4-11.8-12.6-22.6s.1-23.6.3-35.4c.1-2.4,1.6-6.5,2.7-6.6A10.9,10.9,0,0,1,444,431c6.7,6.7,12.9,13.9,19.2,21,1,1.2,1.9,2.6,2.8,3.9Zm-31.3-14.2v35.1c.1,8.1,5.6,14.1,14.3,15.4,0-12.2.2-24.3-.2-36.4-.1-2.4-2.2-5-4.1-6.8S440,443.3,436.3,440.6Z" transform="translate(-78.1 -427.2)"/></svg>